{
	"asset":{
		"generator":"Khronos glTF Blender I/O v4.1.63",
		"version":"2.0"
	},
	"scene":0,
	"scenes":[
		{
			"name":"Scene",
			"nodes":[
				0
			]
		}
	],
	"nodes":[
		{
			"mesh":0,
			"name":"2B",
			"rotation":[
				0.70710688829422,
				0,
				0,
				0.7071066498756409
			],
			"scale":[
				0.013462149538099766,
				0.013462149538099766,
				0.013462149538099766
			]
		}
	],
	"materials":[
		{
			"doubleSided":true,
			"name":"Skin",
			"pbrMetallicRoughness":{
				"baseColorFactor":[
					0.8000000715255737,
					0.49674758315086365,
					0.42251870036125183,
					1
				],
				"metallicFactor":0,
				"roughnessFactor":0.699999988079071
			}
		},
		{
			"doubleSided":true,
			"name":"Boots",
			"pbrMetallicRoughness":{
				"baseColorFactor":[
					0,
					0,
					0,
					1
				],
				"metallicFactor":0,
				"roughnessFactor":0.5
			}
		},
		{
			"doubleSided":true,
			"name":"Stockings",
			"pbrMetallicRoughness":{
				"baseColorFactor":[
					0,
					0,
					0,
					0.8999999761581421
				],
				"metallicFactor":0,
				"roughnessFactor":0.5
			}
		},
		{
			"doubleSided":true,
			"name":"Suit",
			"pbrMetallicRoughness":{
				"baseColorFactor":[
					0,
					0,
					0,
					1
				],
				"metallicFactor":0,
				"roughnessFactor":0.5
			}
		},
		{
			"doubleSided":true,
			"name":"Feather",
			"pbrMetallicRoughness":{
				"baseColorFactor":[
					0.3901589512825012,
					0.3901589512825012,
					0.3901589512825012,
					1
				],
				"metallicFactor":0,
				"roughnessFactor":0.5
			}
		},
		{
			"doubleSided":true,
			"name":"Skirt",
			"pbrMetallicRoughness":{
				"baseColorFactor":[
					0,
					0,
					0,
					1
				],
				"metallicFactor":0,
				"roughnessFactor":0.5
			}
		},
		{
			"doubleSided":true,
			"name":"Gloves",
			"pbrMetallicRoughness":{
				"baseColorFactor":[
					0,
					0,
					0,
					1
				],
				"metallicFactor":0,
				"roughnessFactor":0.5
			}
		},
		{
			"doubleSided":true,
			"name":"Hair_1",
			"pbrMetallicRoughness":{
				"baseColorFactor":[
					0.800000011920929,
					0.800000011920929,
					0.800000011920929,
					1
				],
				"metallicFactor":0,
				"roughnessFactor":0.5
			}
		},
		{
			"doubleSided":true,
			"name":"Hair_2",
			"pbrMetallicRoughness":{
				"baseColorFactor":[
					0.800000011920929,
					0.800000011920929,
					0.800000011920929,
					1
				],
				"metallicFactor":0,
				"roughnessFactor":0.5
			}
		},
		{
			"doubleSided":true,
			"name":"Katana",
			"pbrMetallicRoughness":{
				"baseColorFactor":[
					0.800000011920929,
					0.800000011920929,
					0.800000011920929,
					1
				],
				"metallicFactor":0,
				"roughnessFactor":0.4264214038848877
			}
		}
	],
	"meshes":[
		{
			"name":"2B.001",
			"primitives":[
				{
					"attributes":{
						"POSITION":0,
						"NORMAL":1
					},
					"indices":2,
					"material":0
				},
				{
					"attributes":{
						"POSITION":3,
						"NORMAL":4
					},
					"indices":5,
					"material":1
				},
				{
					"attributes":{
						"POSITION":6,
						"NORMAL":7
					},
					"indices":8,
					"material":2
				},
				{
					"attributes":{
						"POSITION":9,
						"NORMAL":10
					},
					"indices":11,
					"material":3
				},
				{
					"attributes":{
						"POSITION":12,
						"NORMAL":13
					},
					"indices":14,
					"material":4
				},
				{
					"attributes":{
						"POSITION":15,
						"NORMAL":16
					},
					"indices":17,
					"material":5
				},
				{
					"attributes":{
						"POSITION":18,
						"NORMAL":19
					},
					"indices":20,
					"material":6
				},
				{
					"attributes":{
						"POSITION":21,
						"NORMAL":22
					},
					"indices":23,
					"material":7
				},
				{
					"attributes":{
						"POSITION":24,
						"NORMAL":25
					},
					"indices":26,
					"material":8
				},
				{
					"attributes":{
						"POSITION":27,
						"NORMAL":28
					},
					"indices":29,
					"material":9
				}
			]
		}
	],
	"accessors":[
		{
			"bufferView":0,
			"componentType":5126,
			"count":17021,
			"max":[
				15.377981185913086,
				43.89243698120117,
				-10.239982604980469
			],
			"min":[
				-46.37731170654297,
				-13.394085884094238,
				-206.8589324951172
			],
			"type":"VEC3"
		},
		{
			"bufferView":1,
			"componentType":5126,
			"count":17021,
			"type":"VEC3"
		},
		{
			"bufferView":2,
			"componentType":5123,
			"count":101298,
			"type":"SCALAR"
		},
		{
			"bufferView":3,
			"componentType":5126,
			"count":3742,
			"max":[
				13.095916748046875,
				24.885929107666016,
				-8.558337211608887
			],
			"min":[
				-47.145179748535156,
				-1.1294463872909546,
				-113.64823150634766
			],
			"type":"VEC3"
		},
		{
			"bufferView":4,
			"componentType":5126,
			"count":3742,
			"type":"VEC3"
		},
		{
			"bufferView":5,
			"componentType":5123,
			"count":22377,
			"type":"SCALAR"
		},
		{
			"bufferView":6,
			"componentType":5126,
			"count":644,
			"max":[
				13.53507137298584,
				23.374238967895508,
				-75.7120132446289
			],
			"min":[
				-44.567283630371094,
				-3.2058112621307373,
				-125.39637756347656
			],
			"type":"VEC3"
		},
		{
			"bufferView":7,
			"componentType":5126,
			"count":644,
			"type":"VEC3"
		},
		{
			"bufferView":8,
			"componentType":5123,
			"count":3648,
			"type":"SCALAR"
		},
		{
			"bufferView":9,
			"componentType":5126,
			"count":11234,
			"max":[
				13.447022438049316,
				31.260269165039062,
				-118.66120147705078
			],
			"min":[
				-27.169754028320312,
				-16.089290618896484,
				-207.0794677734375
			],
			"type":"VEC3"
		},
		{
			"bufferView":10,
			"componentType":5126,
			"count":11234,
			"type":"VEC3"
		},
		{
			"bufferView":11,
			"componentType":5123,
			"count":66174,
			"type":"SCALAR"
		},
		{
			"bufferView":12,
			"componentType":5126,
			"count":4810,
			"max":[
				5.922720432281494,
				38.714088439941406,
				-130.083251953125
			],
			"min":[
				-34.62516784667969,
				-20.097091674804688,
				-159.71998596191406
			],
			"type":"VEC3"
		},
		{
			"bufferView":13,
			"componentType":5126,
			"count":4810,
			"type":"VEC3"
		},
		{
			"bufferView":14,
			"componentType":5123,
			"count":21312,
			"type":"SCALAR"
		},
		{
			"bufferView":15,
			"componentType":5126,
			"count":17820,
			"max":[
				34.879241943359375,
				39.096527099609375,
				-99.90731811523438
			],
			"min":[
				-33.22197723388672,
				-36.00009536743164,
				-155.31016540527344
			],
			"type":"VEC3"
		},
		{
			"bufferView":16,
			"componentType":5126,
			"count":17820,
			"type":"VEC3"
		},
		{
			"bufferView":17,
			"componentType":5123,
			"count":105048,
			"type":"SCALAR"
		},
		{
			"bufferView":18,
			"componentType":5126,
			"count":4362,
			"max":[
				2.4006905555725098,
				44.06193542480469,
				-118.24930572509766
			],
			"min":[
				-35.676021575927734,
				-11.572502136230469,
				-194.02198791503906
			],
			"type":"VEC3"
		},
		{
			"bufferView":19,
			"componentType":5126,
			"count":4362,
			"type":"VEC3"
		},
		{
			"bufferView":20,
			"componentType":5123,
			"count":24822,
			"type":"SCALAR"
		},
		{
			"bufferView":21,
			"componentType":5126,
			"count":5210,
			"max":[
				5.858449459075928,
				17.033113479614258,
				-180.5795440673828
			],
			"min":[
				-20.370241165161133,
				-9.77617359161377,
				-208.75411987304688
			],
			"type":"VEC3"
		},
		{
			"bufferView":22,
			"componentType":5126,
			"count":5210,
			"type":"VEC3"
		},
		{
			"bufferView":23,
			"componentType":5123,
			"count":25194,
			"type":"SCALAR"
		},
		{
			"bufferView":24,
			"componentType":5126,
			"count":1376,
			"max":[
				4.760522842407227,
				16.158056259155273,
				-182.3598175048828
			],
			"min":[
				-20.032062530517578,
				-9.964752197265625,
				-208.93971252441406
			],
			"type":"VEC3"
		},
		{
			"bufferView":25,
			"componentType":5126,
			"count":1376,
			"type":"VEC3"
		},
		{
			"bufferView":26,
			"componentType":5123,
			"count":6144,
			"type":"SCALAR"
		},
		{
			"bufferView":27,
			"componentType":5126,
			"count":1359,
			"max":[
				-8.497695922851562,
				47.77033996582031,
				-60.19301986694336
			],
			"min":[
				-87.30096435546875,
				-25.179773330688477,
				-157.4678192138672
			],
			"type":"VEC3"
		},
		{
			"bufferView":28,
			"componentType":5126,
			"count":1359,
			"type":"VEC3"
		},
		{
			"bufferView":29,
			"componentType":5123,
			"count":8016,
			"type":"SCALAR"
		}
	],
	"bufferViews":[
		{
			"buffer":0,
			"byteLength":204252,
			"byteOffset":0,
			"target":34962
		},
		{
			"buffer":0,
			"byteLength":204252,
			"byteOffset":204252,
			"target":34962
		},
		{
			"buffer":0,
			"byteLength":202596,
			"byteOffset":408504,
			"target":34963
		},
		{
			"buffer":0,
			"byteLength":44904,
			"byteOffset":611100,
			"target":34962
		},
		{
			"buffer":0,
			"byteLength":44904,
			"byteOffset":656004,
			"target":34962
		},
		{
			"buffer":0,
			"byteLength":44754,
			"byteOffset":700908,
			"target":34963
		},
		{
			"buffer":0,
			"byteLength":7728,
			"byteOffset":745664,
			"target":34962
		},
		{
			"buffer":0,
			"byteLength":7728,
			"byteOffset":753392,
			"target":34962
		},
		{
			"buffer":0,
			"byteLength":7296,
			"byteOffset":761120,
			"target":34963
		},
		{
			"buffer":0,
			"byteLength":134808,
			"byteOffset":768416,
			"target":34962
		},
		{
			"buffer":0,
			"byteLength":134808,
			"byteOffset":903224,
			"target":34962
		},
		{
			"buffer":0,
			"byteLength":132348,
			"byteOffset":1038032,
			"target":34963
		},
		{
			"buffer":0,
			"byteLength":57720,
			"byteOffset":1170380,
			"target":34962
		},
		{
			"buffer":0,
			"byteLength":57720,
			"byteOffset":1228100,
			"target":34962
		},
		{
			"buffer":0,
			"byteLength":42624,
			"byteOffset":1285820,
			"target":34963
		},
		{
			"buffer":0,
			"byteLength":213840,
			"byteOffset":1328444,
			"target":34962
		},
		{
			"buffer":0,
			"byteLength":213840,
			"byteOffset":1542284,
			"target":34962
		},
		{
			"buffer":0,
			"byteLength":210096,
			"byteOffset":1756124,
			"target":34963
		},
		{
			"buffer":0,
			"byteLength":52344,
			"byteOffset":1966220,
			"target":34962
		},
		{
			"buffer":0,
			"byteLength":52344,
			"byteOffset":2018564,
			"target":34962
		},
		{
			"buffer":0,
			"byteLength":49644,
			"byteOffset":2070908,
			"target":34963
		},
		{
			"buffer":0,
			"byteLength":62520,
			"byteOffset":2120552,
			"target":34962
		},
		{
			"buffer":0,
			"byteLength":62520,
			"byteOffset":2183072,
			"target":34962
		},
		{
			"buffer":0,
			"byteLength":50388,
			"byteOffset":2245592,
			"target":34963
		},
		{
			"buffer":0,
			"byteLength":16512,
			"byteOffset":2295980,
			"target":34962
		},
		{
			"buffer":0,
			"byteLength":16512,
			"byteOffset":2312492,
			"target":34962
		},
		{
			"buffer":0,
			"byteLength":12288,
			"byteOffset":2329004,
			"target":34963
		},
		{
			"buffer":0,
			"byteLength":16308,
			"byteOffset":2341292,
			"target":34962
		},
		{
			"buffer":0,
			"byteLength":16308,
			"byteOffset":2357600,
			"target":34962
		},
		{
			"buffer":0,
			"byteLength":16032,
			"byteOffset":2373908,
			"target":34963
		}
	],
	"buffers":[
		{
			"byteLength":2389940,
			"uri":"113.bin"
		}
	]
}
